<svg width="169" height="26" viewBox="0 0 169 26" fill="none" xmlns="http://www.w3.org/2000/svg">
<path d="M66.9998 12.0784C66.0429 9.65251 63.6574 8.31824 61.0832 8.78996L55.8 9.73338C54.924 9.89511 54.3445 10.7307 54.4927 11.6067C54.6544 12.4828 55.49 13.0623 56.3661 12.9141L61.6492 11.9706C62.9026 11.7415 63.6843 12.4962 63.9943 13.2779C64.3043 14.0596 64.2504 15.1378 63.1722 15.8252L55.4092 20.8523C54.6949 21.324 53.8054 21.3509 53.0641 20.9466C52.3094 20.5423 51.8646 19.7875 51.8646 18.925V2.61729C51.8646 1.72778 51.1503 1 50.2473 1C49.3578 1 48.63 1.72778 48.63 2.61729V18.898C48.63 20.9601 49.7082 22.7661 51.5142 23.7499C52.3498 24.2081 53.2528 24.4373 54.1558 24.4373C55.1935 24.4373 56.2313 24.1408 57.1612 23.5343L64.9242 18.5072C67.1211 17.0921 67.9567 14.5044 66.9998 12.0784ZM39.708 8.77648L34.4248 9.7199C33.5488 9.88163 32.9692 10.7172 33.1175 11.5933C33.2792 12.4693 34.1148 13.0488 34.9909 12.9006L40.274 11.9572C41.5274 11.728 42.3091 12.4828 42.6191 13.2645C42.9291 14.0462 42.8752 15.1244 41.797 15.8117L34.034 20.8388C33.3197 21.3105 32.4301 21.3374 31.6889 20.9331C30.9341 20.5288 30.4894 19.7741 30.4894 18.9115V6.53922C30.4894 4.47717 29.4112 2.6712 27.6052 1.68735C25.7992 0.703493 23.6833 0.784359 21.9582 1.90299L2.45632 14.5448C0.259497 15.9734 -0.562628 18.5611 0.39427 20.987C1.35117 23.413 3.73668 24.7472 6.31087 24.2755L23.3463 21.2162C24.2224 21.0544 24.8019 20.2188 24.6537 19.3428C24.4919 18.4668 23.6563 17.8872 22.7803 18.0355L5.74481 21.0949C4.49141 21.324 3.70972 20.5692 3.39974 19.7875C3.08976 19.0058 3.14367 17.9277 4.22186 17.2403L23.7237 4.59847C24.438 4.12676 25.3275 4.09981 26.0688 4.50413C26.8235 4.90846 27.2683 5.66319 27.2683 6.52575V18.898C27.2683 20.9601 28.3465 22.7661 30.1525 23.7499C30.9881 24.2081 31.891 24.4373 32.794 24.4373C33.8318 24.4373 34.8696 24.1408 35.786 23.5343L43.549 18.5072C45.7458 17.0786 46.568 14.4909 45.6111 12.065C44.6677 9.63903 42.2821 8.31824 39.708 8.77648Z" fill="#009C32"/>
<path d="M84.3175 3.9005C84.3476 4.27443 84.3626 4.66341 84.3626 5.06742C84.3626 5.44995 84.3476 5.81959 84.3175 6.17633C84.2659 6.85112 84.0746 7.4593 83.7437 8.00086C83.4127 8.53812 82.9614 8.96148 82.3898 9.27094C81.8181 9.5761 81.1605 9.72868 80.417 9.72868C79.9399 9.72868 79.48 9.64487 79.0373 9.47724C78.5989 9.30962 78.2142 9.07752 77.8833 8.78096C77.5566 8.48009 77.3116 8.1384 77.1483 7.75587C77.0967 7.63552 77.0602 7.53452 77.0387 7.45285C77.0215 7.36689 77.0129 7.28308 77.0129 7.20142C77.0129 7.0252 77.0709 6.88336 77.187 6.77591C77.303 6.66416 77.4534 6.60828 77.6383 6.60828C77.7887 6.60828 77.9112 6.64911 78.0057 6.73078C78.1003 6.81244 78.1884 6.93494 78.2701 7.09826C78.3818 7.34325 78.543 7.5689 78.7536 7.77521C78.9642 7.97722 79.2157 8.14054 79.5079 8.26519C79.8045 8.38553 80.1225 8.44571 80.4621 8.44571C80.9478 8.44571 81.3733 8.35115 81.7386 8.16203C82.104 7.96862 82.3919 7.69569 82.6025 7.34325C82.8131 6.99081 82.9378 6.57605 82.9765 6.09896C82.9937 5.85397 83.0044 5.6799 83.0087 5.57675H79.74C79.5466 5.57675 79.3962 5.52732 79.2887 5.42846C79.1856 5.32961 79.134 5.19422 79.134 5.02229C79.134 4.85037 79.1856 4.71498 79.2887 4.61613C79.3962 4.51297 79.5466 4.4614 79.74 4.4614H83.0087C83.0044 4.37114 82.9937 4.20996 82.9765 3.97786C82.9378 3.50078 82.8131 3.08601 82.6025 2.73357C82.3919 2.38113 82.104 2.11035 81.7386 1.92124C81.3776 1.72782 80.9521 1.63112 80.4621 1.63112C79.9119 1.63112 79.4478 1.76221 79.0695 2.02439C78.6913 2.28657 78.4119 2.61323 78.2314 3.00435C78.1583 3.13759 78.0724 3.24075 77.9735 3.31381C77.879 3.38258 77.7586 3.41697 77.6125 3.41697C77.432 3.41697 77.2837 3.36109 77.1676 3.24934C77.0559 3.13329 77 2.98501 77 2.80449C77 2.63257 77.0451 2.4499 77.1354 2.25649C77.3116 1.86536 77.5652 1.52796 77.8961 1.24429C78.2314 0.956321 78.6161 0.73497 79.0502 0.58024C79.4843 0.425509 79.9399 0.348144 80.417 0.348144C81.1648 0.348144 81.8246 0.500726 82.3962 0.805889C82.9679 1.11105 83.417 1.53226 83.7437 2.06952C84.0746 2.60678 84.2659 3.21711 84.3175 3.9005Z" fill="#10002B"/>
<path d="M91.5081 8.50373C91.6671 8.67995 91.7466 8.86907 91.7466 9.07108C91.7466 9.2473 91.6908 9.39128 91.579 9.50303C91.4673 9.61048 91.3211 9.66421 91.1406 9.66421C90.9214 9.66421 90.7259 9.5718 90.5539 9.38698L88.3297 7.06603C88.2265 6.96287 88.1492 6.8941 88.0976 6.85972C88.046 6.82104 87.9901 6.7974 87.93 6.7888C87.8698 6.77591 87.7666 6.76946 87.6205 6.76946H87.4206V8.94858C87.4206 9.16349 87.3626 9.33111 87.2466 9.45146C87.1305 9.5718 86.9736 9.63198 86.7759 9.63198C86.5782 9.63198 86.4213 9.5718 86.3053 9.45146C86.1892 9.33111 86.1312 9.16349 86.1312 8.94858V3.42341C86.1312 3.20851 86.1892 3.04088 86.3053 2.92054C86.4213 2.80019 86.5782 2.74002 86.7759 2.74002C86.9736 2.74002 87.1305 2.80019 87.2466 2.92054C87.3626 3.04088 87.4206 3.20851 87.4206 3.42341V5.52517H87.614C87.7258 5.52517 87.8075 5.51872 87.859 5.50583C87.9149 5.49293 87.9686 5.46714 88.0202 5.42846C88.0718 5.38978 88.1535 5.31671 88.2652 5.20926L90.5152 3.01725C90.6098 2.91839 90.7001 2.84747 90.786 2.80449C90.8763 2.76151 90.973 2.74002 91.0761 2.74002C91.2567 2.74002 91.4028 2.79804 91.5145 2.91409C91.6306 3.02584 91.6886 3.16983 91.6886 3.34605C91.6886 3.54376 91.5962 3.73502 91.4114 3.91984L89.1485 6.09251L91.5081 8.50373Z" fill="#10002B"/>
<path d="M94.214 9.60619C93.9389 9.60619 93.7283 9.5761 93.5822 9.51593C93.4403 9.45575 93.3393 9.35475 93.2791 9.21291C93.219 9.06678 93.1889 8.85617 93.1889 8.5811V3.82313C93.1889 3.54806 93.219 3.3396 93.2791 3.19776C93.3393 3.05163 93.4403 2.94848 93.5822 2.8883C93.7283 2.82813 93.9389 2.79804 94.214 2.79804H96.6058C97.2806 2.79804 97.8029 2.95922 98.1725 3.28158C98.5421 3.59963 98.7269 4.05523 98.7269 4.64836C98.7269 5.0094 98.6388 5.31671 98.4626 5.5703C98.2864 5.82388 98.0564 5.99151 97.7728 6.07317V6.09251C98.1424 6.16558 98.4347 6.33965 98.6496 6.61473C98.8688 6.88981 98.9784 7.23365 98.9784 7.64627C98.9784 8.26949 98.7807 8.75302 98.3852 9.09687C97.9898 9.43641 97.4397 9.60619 96.7348 9.60619H94.214ZM96.5349 5.66056C96.8401 5.66056 97.0765 5.58319 97.2441 5.42846C97.416 5.27373 97.502 5.05668 97.502 4.77731C97.502 4.48933 97.4182 4.27013 97.2506 4.1197C97.0829 3.96927 96.8444 3.89405 96.5349 3.89405H94.4332V5.66056H96.5349ZM96.6768 8.51663C97.0163 8.51663 97.2785 8.43496 97.4633 8.27164C97.6481 8.10831 97.7405 7.87192 97.7405 7.56245C97.7405 7.26159 97.6481 7.02949 97.4633 6.86617C97.2785 6.69854 97.0163 6.61473 96.6768 6.61473H94.4267V8.51663H96.6768Z" fill="#10002B"/>
<path d="M102.802 9.72868C102.261 9.72868 101.792 9.63627 101.397 9.45146C101.006 9.26234 100.707 9.00231 100.501 8.67136C100.294 8.3404 100.191 7.96217 100.191 7.53667C100.191 7.16273 100.288 6.81889 100.481 6.50513C100.679 6.18707 100.971 5.93349 101.358 5.74437C101.745 5.55526 102.216 5.4607 102.77 5.4607C103.062 5.4607 103.342 5.48004 103.608 5.51872C103.879 5.5574 104.171 5.61973 104.485 5.70569V5.13834C104.485 4.70424 104.362 4.38403 104.117 4.17772C103.877 3.97142 103.49 3.86826 102.957 3.86826C102.729 3.86826 102.501 3.89405 102.274 3.94563C102.046 3.99291 101.844 4.05093 101.668 4.1197C101.457 4.20566 101.296 4.24864 101.184 4.24864C101.029 4.24864 100.898 4.19492 100.791 4.08746C100.688 3.97572 100.636 3.83603 100.636 3.6684C100.636 3.40192 100.804 3.19991 101.139 3.06237C101.388 2.95492 101.68 2.86466 102.016 2.7916C102.355 2.71853 102.703 2.682 103.06 2.682C103.924 2.682 104.586 2.88615 105.046 3.29447C105.506 3.70279 105.736 4.32386 105.736 5.15768V8.52307C105.736 8.64772 105.716 8.74657 105.678 8.81964C105.643 8.88841 105.581 8.95503 105.491 9.0195C105.237 9.19572 104.87 9.35905 104.388 9.50948C103.911 9.65561 103.382 9.72868 102.802 9.72868ZM102.925 8.63267C103.195 8.63267 103.468 8.59829 103.743 8.52952C104.019 8.45645 104.266 8.36189 104.485 8.24585V6.6792C104.188 6.58894 103.918 6.52447 103.673 6.48579C103.428 6.4471 103.176 6.42776 102.918 6.42776C102.437 6.42776 102.067 6.53092 101.809 6.73722C101.556 6.94353 101.429 7.21001 101.429 7.53667C101.429 7.88481 101.56 8.15559 101.822 8.349C102.089 8.53812 102.456 8.63267 102.925 8.63267Z" fill="#10002B"/>
<path d="M112.209 0C112.342 0 112.445 0.0429809 112.519 0.128943C112.592 0.214904 112.628 0.324505 112.628 0.457745C112.628 0.621072 112.583 0.7801 112.493 0.934831C112.407 1.08956 112.293 1.21421 112.151 1.30876C111.971 1.50218 111.764 1.65261 111.532 1.76006C111.304 1.86321 111.029 1.91479 110.707 1.91479C110.367 1.91479 110.086 1.86321 109.862 1.76006C109.643 1.65691 109.441 1.50647 109.256 1.30876C109.123 1.2185 109.011 1.09171 108.921 0.928383C108.831 0.765057 108.786 0.608177 108.786 0.457745C108.786 0.324505 108.822 0.214904 108.895 0.128943C108.968 0.0429809 109.071 0 109.205 0C109.334 0 109.432 0.0386826 109.501 0.116048C109.574 0.189115 109.645 0.298716 109.714 0.44485C109.817 0.664052 109.94 0.827379 110.082 0.934831C110.223 1.03798 110.432 1.08956 110.707 1.08956C110.982 1.08956 111.19 1.03798 111.332 0.934831C111.478 0.827379 111.601 0.664052 111.7 0.44485C111.76 0.303014 111.827 0.193413 111.9 0.116048C111.977 0.0386826 112.08 0 112.209 0ZM112.738 2.74002C113.004 2.74002 113.221 2.82813 113.389 3.00435C113.556 3.17627 113.64 3.41267 113.64 3.71353V8.99371C113.64 9.20432 113.582 9.36979 113.466 9.49014C113.354 9.60619 113.202 9.66421 113.008 9.66421C112.811 9.66421 112.654 9.60619 112.538 9.49014C112.426 9.36979 112.37 9.20432 112.37 8.99371V6.52447C112.37 6.03449 112.372 5.62617 112.377 5.29952C112.385 4.97287 112.4 4.63547 112.422 4.28732L112.383 4.28088L109.54 8.85188C109.359 9.15704 109.194 9.36979 109.044 9.49014C108.893 9.60619 108.719 9.66421 108.521 9.66421C108.251 9.66421 108.036 9.57825 107.877 9.40633C107.722 9.2344 107.644 8.99801 107.644 8.69714V3.41052C107.644 3.19991 107.7 3.03659 107.812 2.92054C107.928 2.80019 108.083 2.74002 108.276 2.74002C108.474 2.74002 108.629 2.80019 108.741 2.92054C108.852 3.03659 108.908 3.19991 108.908 3.41052V5.19637C108.908 6.58035 108.891 7.53667 108.857 8.06533L108.882 8.07822L111.674 3.57814C111.85 3.27298 112.018 3.05808 112.177 2.93343C112.34 2.80449 112.527 2.74002 112.738 2.74002Z" fill="#10002B"/>
<path d="M121.449 5.26729C121.47 5.48219 121.481 5.7938 121.481 6.20212C121.481 6.61473 121.47 6.92849 121.449 7.14339C121.402 7.65056 121.253 8.09971 121.004 8.49084C120.759 8.88196 120.43 9.18713 120.018 9.40633C119.609 9.62123 119.143 9.72868 118.619 9.72868C118.322 9.72868 118.021 9.6943 117.716 9.62553C117.415 9.55676 117.155 9.46865 116.936 9.3612V11.2502C116.936 11.4651 116.878 11.6327 116.762 11.7531C116.646 11.8734 116.487 11.9336 116.285 11.9336C116.087 11.9336 115.93 11.8734 115.814 11.7531C115.698 11.6327 115.64 11.4651 115.64 11.2502V4.13904C115.64 3.96712 115.647 3.83603 115.659 3.74577C115.677 3.65551 115.707 3.58029 115.75 3.52012C115.797 3.45995 115.87 3.39977 115.969 3.3396C116.24 3.18057 116.601 3.03229 117.052 2.89475C117.508 2.75291 117.995 2.682 118.516 2.682C119.074 2.682 119.566 2.78945 119.992 3.00435C120.417 3.21925 120.755 3.52227 121.004 3.91339C121.253 4.30452 121.402 4.75582 121.449 5.26729ZM120.16 6.96287C120.181 6.75657 120.192 6.50083 120.192 6.19567C120.192 5.88621 120.181 5.63692 120.16 5.4478C120.121 4.97931 119.955 4.60968 119.663 4.3389C119.375 4.06383 118.98 3.92629 118.477 3.92629C118.206 3.92629 117.922 3.96497 117.626 4.04234C117.329 4.1197 117.099 4.21641 116.936 4.33245V8.07822C117.099 8.19427 117.329 8.29098 117.626 8.36834C117.922 8.44141 118.206 8.47794 118.477 8.47794C118.98 8.47794 119.375 8.34255 119.663 8.07178C119.951 7.7967 120.117 7.42706 120.16 6.96287Z" fill="#10002B"/>
<path d="M128.327 2.74002C128.593 2.74002 128.81 2.82813 128.978 3.00435C129.145 3.17627 129.229 3.41267 129.229 3.71353V8.99371C129.229 9.20432 129.171 9.36979 129.055 9.49014C128.943 9.60619 128.791 9.66421 128.597 9.66421C128.4 9.66421 128.243 9.60619 128.127 9.49014C128.015 9.36979 127.959 9.20432 127.959 8.99371V6.52447C127.959 6.03449 127.961 5.62617 127.966 5.29952C127.974 4.97287 127.989 4.63547 128.011 4.28732L127.972 4.28088L125.129 8.85188C124.948 9.15704 124.783 9.36979 124.632 9.49014C124.482 9.60619 124.308 9.66421 124.11 9.66421C123.839 9.66421 123.625 9.57825 123.465 9.40633C123.311 9.2344 123.233 8.99801 123.233 8.69714V3.41052C123.233 3.19991 123.289 3.03659 123.401 2.92054C123.517 2.80019 123.672 2.74002 123.865 2.74002C124.063 2.74002 124.218 2.80019 124.329 2.92054C124.441 3.03659 124.497 3.19991 124.497 3.41052V5.19637C124.497 6.58035 124.48 7.53667 124.445 8.06533L124.471 8.07822L127.263 3.57814C127.439 3.27298 127.607 3.05808 127.766 2.93343C127.929 2.80449 128.116 2.74002 128.327 2.74002Z" fill="#10002B"/>
<path d="M136.503 2.74002C136.705 2.74002 136.862 2.80019 136.973 2.92054C137.089 3.04088 137.147 3.20851 137.147 3.42341V8.98082C137.147 9.19572 137.089 9.36335 136.973 9.48369C136.862 9.60404 136.705 9.66421 136.503 9.66421C136.305 9.66421 136.148 9.60404 136.032 9.48369C135.916 9.36335 135.858 9.19572 135.858 8.98082V6.73078H132.538V8.98082C132.538 9.19572 132.48 9.36335 132.364 9.48369C132.248 9.60404 132.091 9.66421 131.893 9.66421C131.695 9.66421 131.538 9.60404 131.422 9.48369C131.306 9.36335 131.248 9.19572 131.248 8.98082V3.42341C131.248 3.20851 131.306 3.04088 131.422 2.92054C131.538 2.80019 131.695 2.74002 131.893 2.74002C132.091 2.74002 132.248 2.80019 132.364 2.92054C132.48 3.04088 132.538 3.20851 132.538 3.42341V5.53806H135.858V3.42341C135.858 3.20851 135.916 3.04088 136.032 2.92054C136.148 2.80019 136.305 2.74002 136.503 2.74002Z" fill="#10002B"/>
<path d="M143.101 2.79804C143.325 2.79804 143.495 2.85177 143.611 2.95922C143.727 3.06238 143.785 3.20851 143.785 3.39762C143.785 3.58674 143.727 3.73502 143.611 3.84247C143.495 3.94993 143.325 4.00365 143.101 4.00365H140.452V8.98082C140.452 9.19572 140.394 9.36335 140.278 9.48369C140.166 9.60404 140.009 9.66421 139.807 9.66421C139.609 9.66421 139.452 9.60404 139.336 9.48369C139.22 9.36335 139.162 9.19572 139.162 8.98082V3.82313C139.162 3.55236 139.192 3.3439 139.253 3.19776C139.313 3.05163 139.416 2.94848 139.562 2.8883C139.708 2.82813 139.917 2.79804 140.187 2.79804H143.101Z" fill="#10002B"/>
<path d="M83.1634 19.6818C83.1892 19.901 83.2021 20.1804 83.2021 20.52C83.2021 20.8595 83.1892 21.1389 83.1634 21.3581C83.1076 21.861 82.9485 22.2972 82.6863 22.6668C82.4285 23.0322 82.0868 23.3116 81.6613 23.505C81.24 23.6984 80.7587 23.7951 80.2171 23.7951C79.6713 23.7951 79.1856 23.6984 78.7601 23.505C78.3346 23.3073 77.9907 23.0257 77.7285 22.6604C77.4706 22.2908 77.3159 21.8567 77.2643 21.3581C77.2428 21.1518 77.2321 20.8488 77.2321 20.449C77.2321 20.0235 77.245 19.5314 77.2708 18.9727C77.3181 18.0314 77.4363 17.2835 77.6254 16.7291C77.8145 16.1746 78.1325 15.7319 78.5795 15.401C79.0308 15.0657 79.6777 14.8121 80.5201 14.6402L81.816 14.3694C82.0266 14.3264 82.1921 14.305 82.3124 14.305C82.4714 14.305 82.609 14.3522 82.725 14.4468C82.8411 14.537 82.8991 14.6681 82.8991 14.8401C82.8991 15.1796 82.6971 15.3902 82.2931 15.4719L80.6555 15.8136C80.1311 15.921 79.725 16.0629 79.437 16.2391C79.149 16.4153 78.9363 16.6517 78.7987 16.9483C78.6612 17.2405 78.5666 17.636 78.5151 18.1345C78.7429 17.8638 79.0222 17.6574 79.3532 17.5156C79.6884 17.3695 80.0624 17.2964 80.475 17.2964C80.9736 17.2964 81.4141 17.3931 81.7966 17.5865C82.1835 17.7799 82.4951 18.0572 82.7315 18.4182C82.9679 18.7749 83.1119 19.1962 83.1634 19.6818ZM81.8805 21.2162C81.9019 21.0314 81.9127 20.8058 81.9127 20.5393C81.9127 20.2427 81.9019 20.002 81.8805 19.8172C81.8246 19.3874 81.6548 19.0608 81.3711 18.8373C81.0875 18.6138 80.7006 18.502 80.2107 18.502C79.7207 18.502 79.3339 18.6138 79.0502 18.8373C78.7665 19.0608 78.5967 19.3874 78.5409 19.8172C78.5237 19.9591 78.5151 20.1675 78.5151 20.4426C78.5151 20.765 78.5258 21.0228 78.5473 21.2162C78.6032 21.6461 78.7708 21.9749 79.0502 22.2027C79.3339 22.4262 79.7207 22.5379 80.2107 22.5379C80.7049 22.5379 81.0918 22.4262 81.3711 22.2027C81.6548 21.9749 81.8246 21.6461 81.8805 21.2162Z" fill="#10002B"/>
<path d="M87.6937 16.7613C88.2697 16.7613 88.7683 16.8795 89.1895 17.1159C89.615 17.3523 89.9395 17.6832 90.163 18.1087C90.3908 18.53 90.5047 19.0178 90.5047 19.5722V19.9784C90.5047 20.2062 90.4853 20.3738 90.4466 20.4813C90.408 20.5844 90.3392 20.6554 90.2403 20.694C90.1415 20.7284 89.9846 20.7456 89.7697 20.7456H85.9272C85.9272 20.823 85.9315 20.9304 85.9401 21.068C85.9616 21.3774 86.0497 21.6482 86.2045 21.8803C86.3592 22.1124 86.5719 22.2929 86.8427 22.4219C87.1135 22.5465 87.4273 22.6088 87.784 22.6088C88.2826 22.6088 88.7575 22.5164 89.2088 22.3316C89.2432 22.3187 89.2948 22.2994 89.3635 22.2736C89.4323 22.2435 89.4925 22.222 89.5441 22.2091C89.5956 22.1962 89.6494 22.1898 89.7052 22.1898C89.8643 22.1898 89.9932 22.2413 90.0921 22.3445C90.1909 22.4433 90.2403 22.5766 90.2403 22.7442C90.2403 22.9978 90.0749 23.2063 89.7439 23.3696C89.4645 23.4985 89.1551 23.6017 88.8155 23.679C88.4803 23.7564 88.1278 23.7951 87.7582 23.7951C87.1909 23.7951 86.6858 23.6855 86.2431 23.4663C85.8047 23.2428 85.4523 22.9333 85.1858 22.5379C84.9236 22.1425 84.7689 21.6869 84.7216 21.1711C84.6958 20.9132 84.6829 20.6016 84.6829 20.2363C84.6829 19.9483 84.6937 19.6861 84.7152 19.4497C84.7624 18.9254 84.915 18.4612 85.1729 18.0572C85.4351 17.6489 85.7811 17.3308 86.2109 17.103C86.645 16.8752 87.1393 16.7613 87.6937 16.7613ZM89.2991 19.785C89.3034 19.7334 89.3055 19.6603 89.3055 19.5658C89.3055 19.0371 89.1551 18.6267 88.8542 18.3344C88.5576 18.0378 88.1601 17.8895 87.6615 17.8895C87.3305 17.8895 87.0383 17.9583 86.7847 18.0958C86.5354 18.2334 86.3377 18.429 86.1916 18.6825C86.0454 18.9318 85.9616 19.2198 85.9401 19.5464L85.9272 19.785H89.2991Z" fill="#10002B"/>
<path d="M97.3911 21.674C97.3911 22.1167 97.2729 22.4971 97.0365 22.8151C96.8001 23.1332 96.467 23.376 96.0372 23.5437C95.6074 23.7113 95.1045 23.7951 94.5286 23.7951C93.9999 23.7951 93.5142 23.7113 93.0715 23.5437C92.6331 23.3717 92.2785 23.1418 92.0078 22.8538C91.9218 22.7679 91.8487 22.6711 91.7885 22.5637C91.7284 22.4519 91.6983 22.3402 91.6983 22.2284C91.6983 22.078 91.7499 21.9555 91.853 21.861C91.9605 21.7621 92.0894 21.7127 92.2398 21.7127C92.3516 21.7127 92.4462 21.7385 92.5235 21.79C92.6052 21.8373 92.6783 21.8932 92.7427 21.9577C92.8072 22.0178 92.8523 22.0608 92.8781 22.0866C93.0457 22.2757 93.2671 22.424 93.5422 22.5315C93.8215 22.6389 94.1396 22.6926 94.4963 22.6926C95.0207 22.6926 95.4183 22.5981 95.689 22.409C95.9641 22.2198 96.1017 21.9426 96.1017 21.5773C96.1017 21.2936 95.9899 21.0744 95.7664 20.9197C95.5429 20.765 95.2163 20.6876 94.7865 20.6876H94.1224C93.9462 20.6876 93.8086 20.6468 93.7098 20.5651C93.6109 20.4834 93.5615 20.3609 93.5615 20.1976C93.5615 20.0343 93.6088 19.9139 93.7033 19.8366C93.8022 19.7549 93.9419 19.7141 94.1224 19.7141H94.7349C95.0787 19.7141 95.3452 19.6346 95.5343 19.4755C95.7277 19.3122 95.8244 19.0801 95.8244 18.7792C95.8244 18.487 95.6998 18.2549 95.4505 18.083C95.2055 17.911 94.866 17.8251 94.4319 17.8251C93.8258 17.8251 93.3681 18.0206 93.0586 18.4118C92.9555 18.5407 92.8545 18.6331 92.7556 18.689C92.6611 18.7406 92.5622 18.7663 92.459 18.7663C92.3172 18.7663 92.1926 18.7191 92.0851 18.6245C91.982 18.5257 91.9304 18.3946 91.9304 18.2312C91.9304 18.1238 91.9583 18.0185 92.0142 17.9153C92.0701 17.8079 92.141 17.7133 92.227 17.6317C92.4548 17.3652 92.7599 17.1524 93.1424 16.9934C93.5293 16.8301 93.9698 16.7484 94.4641 16.7484C95.0185 16.7484 95.4913 16.8279 95.8825 16.9869C96.2779 17.1417 96.5766 17.3652 96.7786 17.6574C96.9849 17.9497 97.0881 18.2979 97.0881 18.7019C97.0881 19.0414 97.0107 19.3315 96.856 19.5722C96.7012 19.8086 96.4863 19.9934 96.2113 20.1267V20.146C96.5551 20.2449 96.8366 20.4297 97.0558 20.7005C97.2793 20.9713 97.3911 21.2958 97.3911 21.674Z" fill="#10002B"/>
<path d="M107.12 16.8645C107.391 16.8645 107.6 16.8945 107.746 16.9547C107.892 17.0149 107.995 17.118 108.055 17.2642C108.115 17.4103 108.145 17.6188 108.145 17.8895V23.0472C108.145 23.2621 108.087 23.4298 107.971 23.5501C107.855 23.6704 107.698 23.7306 107.501 23.7306C107.299 23.7306 107.14 23.6704 107.024 23.5501C106.912 23.4298 106.856 23.2621 106.856 23.0472V18.0701H103.645V23.0472C103.645 23.2621 103.587 23.4298 103.471 23.5501C103.359 23.6704 103.203 23.7306 103.001 23.7306C102.803 23.7306 102.646 23.6704 102.53 23.5501C102.414 23.4298 102.356 23.2621 102.356 23.0472V17.8895C102.356 17.6188 102.386 17.4103 102.446 17.2642C102.506 17.118 102.609 17.0149 102.756 16.9547C102.902 16.8945 103.11 16.8645 103.381 16.8645H107.12Z" fill="#10002B"/>
<path d="M115.959 19.3337C115.98 19.5486 115.991 19.8602 115.991 20.2685C115.991 20.6811 115.98 20.9949 115.959 21.2098C115.912 21.717 115.763 22.1661 115.514 22.5572C115.269 22.9484 114.94 23.2535 114.528 23.4727C114.119 23.6876 113.653 23.7951 113.129 23.7951C112.832 23.7951 112.531 23.7607 112.226 23.6919C111.925 23.6232 111.665 23.5351 111.446 23.4276V25.3166C111.446 25.5315 111.388 25.6991 111.272 25.8195C111.156 25.9398 110.997 26 110.795 26C110.597 26 110.44 25.9398 110.324 25.8195C110.208 25.6991 110.15 25.5315 110.15 25.3166V18.2055C110.15 18.0335 110.156 17.9024 110.169 17.8122C110.187 17.7219 110.217 17.6467 110.26 17.5865C110.307 17.5264 110.38 17.4662 110.479 17.406C110.75 17.247 111.111 17.0987 111.562 16.9612C112.018 16.8193 112.505 16.7484 113.025 16.7484C113.584 16.7484 114.076 16.8559 114.502 17.0708C114.927 17.2857 115.265 17.5887 115.514 17.9798C115.763 18.3709 115.912 18.8222 115.959 19.3337ZM114.669 21.0293C114.691 20.823 114.702 20.5672 114.702 20.2621C114.702 19.9526 114.691 19.7033 114.669 19.5142C114.631 19.0457 114.465 18.6761 114.173 18.4053C113.885 18.1302 113.49 17.9927 112.987 17.9927C112.716 17.9927 112.432 18.0314 112.136 18.1087C111.839 18.1861 111.609 18.2828 111.446 18.3989V22.1446C111.609 22.2607 111.839 22.3574 112.136 22.4348C112.432 22.5078 112.716 22.5444 112.987 22.5444C113.49 22.5444 113.885 22.409 114.173 22.1382C114.461 21.8631 114.626 21.4935 114.669 21.0293Z" fill="#10002B"/>
<path d="M120.503 23.7951C119.952 23.7951 119.46 23.6833 119.026 23.4598C118.592 23.2363 118.244 22.9269 117.982 22.5315C117.72 22.1317 117.563 21.674 117.511 21.1582C117.485 20.9046 117.473 20.5973 117.473 20.2363C117.473 19.9268 117.483 19.6432 117.505 19.3853C117.552 18.8695 117.707 18.4118 117.969 18.012C118.235 17.6123 118.586 17.3029 119.02 17.0837C119.458 16.8602 119.952 16.7484 120.503 16.7484C121.053 16.7484 121.545 16.8602 121.979 17.0837C122.417 17.3072 122.768 17.6188 123.03 18.0185C123.296 18.4139 123.453 18.8695 123.501 19.3853C123.522 19.583 123.533 19.8774 123.533 20.2685C123.533 20.6553 123.522 20.9519 123.501 21.1582C123.449 21.674 123.29 22.1317 123.023 22.5315C122.761 22.9269 122.413 23.2363 121.979 23.4598C121.545 23.6833 121.053 23.7951 120.503 23.7951ZM120.503 22.5379C120.825 22.5379 121.111 22.4734 121.36 22.3445C121.609 22.2155 121.807 22.0329 121.953 21.7965C122.104 21.5601 122.194 21.2893 122.224 20.9842C122.246 20.7263 122.256 20.4877 122.256 20.2685C122.256 20.0407 122.246 19.8022 122.224 19.5529C122.194 19.2477 122.104 18.977 121.953 18.7406C121.807 18.5042 121.609 18.3215 121.36 18.1926C121.111 18.0636 120.825 17.9991 120.503 17.9991C120.185 17.9991 119.901 18.0636 119.652 18.1926C119.402 18.3215 119.202 18.5042 119.052 18.7406C118.906 18.977 118.818 19.2477 118.788 19.5529C118.766 19.8022 118.755 20.0407 118.755 20.2685C118.755 20.4877 118.766 20.7263 118.788 20.9842C118.814 21.2893 118.902 21.5601 119.052 21.7965C119.202 22.0286 119.402 22.2113 119.652 22.3445C119.901 22.4734 120.185 22.5379 120.503 22.5379Z" fill="#10002B"/>
<path d="M131.392 22.4734C131.585 22.4734 131.738 22.5336 131.849 22.654C131.961 22.77 132.017 22.9333 132.017 23.1439V24.4978C132.017 24.7084 131.961 24.8718 131.849 24.9878C131.738 25.1082 131.585 25.1683 131.392 25.1683C131.198 25.1683 131.046 25.1082 130.934 24.9878C130.822 24.8718 130.766 24.7084 130.766 24.4978V23.6726H126.298C126.028 23.6726 125.819 23.6425 125.673 23.5823C125.527 23.5222 125.424 23.419 125.364 23.2729C125.303 23.1267 125.273 22.9183 125.273 22.6475V17.4898C125.273 17.2749 125.331 17.1073 125.447 16.9869C125.563 16.8666 125.72 16.8064 125.918 16.8064C126.12 16.8064 126.277 16.8666 126.389 16.9869C126.505 17.1073 126.563 17.2749 126.563 17.4898V22.4734H129.722V17.4898C129.722 17.2749 129.78 17.1073 129.896 16.9869C130.012 16.8666 130.169 16.8064 130.367 16.8064C130.569 16.8064 130.725 16.8666 130.837 16.9869C130.953 17.1073 131.011 17.2749 131.011 17.4898V22.4734H131.392Z" fill="#10002B"/>
<path d="M136.085 16.7613C136.661 16.7613 137.159 16.8795 137.581 17.1159C138.006 17.3523 138.331 17.6832 138.554 18.1087C138.782 18.53 138.896 19.0178 138.896 19.5722V19.9784C138.896 20.2062 138.876 20.3738 138.838 20.4813C138.799 20.5844 138.73 20.6554 138.631 20.694C138.533 20.7284 138.376 20.7456 138.161 20.7456H134.318C134.318 20.823 134.323 20.9304 134.331 21.068C134.353 21.3774 134.441 21.6482 134.596 21.8803C134.75 22.1124 134.963 22.2929 135.234 22.4219C135.505 22.5465 135.818 22.6088 136.175 22.6088C136.674 22.6088 137.149 22.5164 137.6 22.3316C137.634 22.3187 137.686 22.2994 137.755 22.2736C137.823 22.2435 137.884 22.222 137.935 22.2091C137.987 22.1962 138.04 22.1898 138.096 22.1898C138.255 22.1898 138.384 22.2413 138.483 22.3445C138.582 22.4433 138.631 22.5766 138.631 22.7442C138.631 22.9978 138.466 23.2063 138.135 23.3696C137.856 23.4985 137.546 23.6017 137.207 23.679C136.871 23.7564 136.519 23.7951 136.149 23.7951C135.582 23.7951 135.077 23.6855 134.634 23.4663C134.196 23.2428 133.843 22.9333 133.577 22.5379C133.315 22.1425 133.16 21.6869 133.113 21.1711C133.087 20.9132 133.074 20.6016 133.074 20.2363C133.074 19.9483 133.085 19.6861 133.106 19.4497C133.154 18.9254 133.306 18.4612 133.564 18.0572C133.826 17.6489 134.172 17.3308 134.602 17.103C135.036 16.8752 135.53 16.7613 136.085 16.7613ZM137.69 19.785C137.694 19.7334 137.697 19.6603 137.697 19.5658C137.697 19.0371 137.546 18.6267 137.245 18.3344C136.949 18.0378 136.551 17.8895 136.053 17.8895C135.722 17.8895 135.429 17.9583 135.176 18.0958C134.926 18.2334 134.729 18.429 134.583 18.6825C134.436 18.9318 134.353 19.2198 134.331 19.5464L134.318 19.785H137.69Z" fill="#10002B"/>
<path d="M145.821 16.8064C146.023 16.8064 146.18 16.8666 146.291 16.9869C146.408 17.1073 146.466 17.2749 146.466 17.4898V23.0472C146.466 23.2621 146.408 23.4298 146.291 23.5501C146.18 23.6704 146.023 23.7306 145.821 23.7306C145.623 23.7306 145.466 23.6704 145.35 23.5501C145.234 23.4298 145.176 23.2621 145.176 23.0472V20.7972H141.856V23.0472C141.856 23.2621 141.798 23.4298 141.682 23.5501C141.566 23.6704 141.409 23.7306 141.211 23.7306C141.013 23.7306 140.857 23.6704 140.741 23.5501C140.624 23.4298 140.566 23.2621 140.566 23.0472V17.4898C140.566 17.2749 140.624 17.1073 140.741 16.9869C140.857 16.8666 141.013 16.8064 141.211 16.8064C141.409 16.8064 141.566 16.8666 141.682 16.9869C141.798 17.1073 141.856 17.2749 141.856 17.4898V19.6045H145.176V17.4898C145.176 17.2749 145.234 17.1073 145.35 16.9869C145.466 16.8666 145.623 16.8064 145.821 16.8064Z" fill="#10002B"/>
<path d="M153.483 16.8645C153.707 16.8645 153.877 16.9182 153.993 17.0256C154.109 17.1288 154.167 17.2749 154.167 17.464C154.167 17.6532 154.109 17.8014 153.993 17.9089C153.877 18.0163 153.707 18.0701 153.483 18.0701H151.588V23.0472C151.588 23.2621 151.53 23.4298 151.414 23.5501C151.298 23.6704 151.141 23.7306 150.943 23.7306C150.745 23.7306 150.589 23.6704 150.473 23.5501C150.356 23.4298 150.298 23.2621 150.298 23.0472V18.0701H148.403C148.179 18.0701 148.01 18.0163 147.894 17.9089C147.778 17.8014 147.72 17.6532 147.72 17.464C147.72 17.2749 147.778 17.1288 147.894 17.0256C148.01 16.9182 148.179 16.8645 148.403 16.8645H153.483Z" fill="#10002B"/>
<path d="M157.951 23.7951C157.401 23.7951 156.909 23.6833 156.475 23.4598C156.041 23.2363 155.693 22.9269 155.43 22.5315C155.168 22.1317 155.011 21.674 154.96 21.1582C154.934 20.9046 154.921 20.5973 154.921 20.2363C154.921 19.9268 154.932 19.6432 154.953 19.3853C155.001 18.8695 155.155 18.4118 155.418 18.012C155.684 17.6123 156.034 17.3029 156.468 17.0837C156.907 16.8602 157.401 16.7484 157.951 16.7484C158.501 16.7484 158.994 16.8602 159.428 17.0837C159.866 17.3072 160.216 17.6188 160.479 18.0185C160.745 18.4139 160.902 18.8695 160.949 19.3853C160.971 19.583 160.981 19.8774 160.981 20.2685C160.981 20.6553 160.971 20.9519 160.949 21.1582C160.898 21.674 160.739 22.1317 160.472 22.5315C160.21 22.9269 159.862 23.2363 159.428 23.4598C158.994 23.6833 158.501 23.7951 157.951 23.7951ZM157.951 22.5379C158.274 22.5379 158.559 22.4734 158.809 22.3445C159.058 22.2155 159.256 22.0329 159.402 21.7965C159.552 21.5601 159.643 21.2893 159.673 20.9842C159.694 20.7263 159.705 20.4877 159.705 20.2685C159.705 20.0407 159.694 19.8022 159.673 19.5529C159.643 19.2477 159.552 18.977 159.402 18.7406C159.256 18.5042 159.058 18.3215 158.809 18.1926C158.559 18.0636 158.274 17.9991 157.951 17.9991C157.633 17.9991 157.35 18.0636 157.1 18.1926C156.851 18.3215 156.651 18.5042 156.501 18.7406C156.355 18.977 156.266 19.2477 156.236 19.5529C156.215 19.8022 156.204 20.0407 156.204 20.2685C156.204 20.4877 156.215 20.7263 156.236 20.9842C156.262 21.2893 156.35 21.5601 156.501 21.7965C156.651 22.0286 156.851 22.2113 157.1 22.3445C157.35 22.4734 157.633 22.5379 157.951 22.5379Z" fill="#10002B"/>
<path d="M163.747 23.6726C163.472 23.6726 163.261 23.6425 163.115 23.5823C162.973 23.5222 162.872 23.4212 162.812 23.2793C162.752 23.1332 162.722 22.9226 162.722 22.6475V17.8895C162.722 17.6145 162.752 17.406 162.812 17.2642C162.872 17.118 162.973 17.0149 163.115 16.9547C163.261 16.8945 163.472 16.8645 163.747 16.8645H166.139C166.814 16.8645 167.336 17.0256 167.706 17.348C168.075 17.666 168.26 18.1216 168.26 18.7148C168.26 19.0758 168.172 19.3831 167.996 19.6367C167.819 19.8903 167.589 20.0579 167.306 20.1396V20.1589C167.675 20.232 167.968 20.4061 168.183 20.6811C168.402 20.9562 168.511 21.3001 168.511 21.7127C168.511 22.3359 168.314 22.8194 167.918 23.1633C167.523 23.5028 166.973 23.6726 166.268 23.6726H163.747ZM166.068 19.727C166.373 19.727 166.61 19.6496 166.777 19.4949C166.949 19.3401 167.035 19.1231 167.035 18.8437C167.035 18.5557 166.951 18.3365 166.784 18.1861C166.616 18.0357 166.377 17.9605 166.068 17.9605H163.966V19.727H166.068ZM166.21 22.583C166.549 22.583 166.812 22.5014 166.996 22.338C167.181 22.1747 167.274 21.9383 167.274 21.6289C167.274 21.328 167.181 21.0959 166.996 20.9326C166.812 20.7649 166.549 20.6811 166.21 20.6811H163.96V22.583H166.21Z" fill="#10002B"/>
</svg>
