<svg width="171" height="20" viewBox="0 0 171 20" fill="none" xmlns="http://www.w3.org/2000/svg">
<g clip-path="url(#clip0_1_241)">
<path d="M57.4632 1.14648V18.8802H54.5999V10.8613H45.7969V18.8802H42.9336V1.14648H45.7969V8.12579H54.5999V1.14648H57.4632Z" fill="#1E2D3C"/>
<mask id="mask0_1_241" style="mask-type:luminance" maskUnits="userSpaceOnUse" x="0" y="0" width="171" height="20">
<path d="M170.435 0.00390625H0V19.9959H170.435V0.00390625Z" fill="white"/>
</mask>
<g mask="url(#mask0_1_241)">
<path d="M81.5536 16.4511C80.7132 16.4649 79.8789 16.3062 79.1022 15.9846C78.3256 15.6631 77.6232 15.1856 77.0385 14.5817C76.4538 13.9779 75.9993 13.2605 75.7029 12.4739C75.4066 11.6873 75.2748 10.8482 75.3157 10.0087C75.276 9.16983 75.4087 8.33173 75.7056 7.54615C76.0024 6.76057 76.4572 6.04419 77.0418 5.44125C77.6263 4.83831 78.3283 4.36161 79.1043 4.04058C79.8804 3.71956 80.714 3.56103 81.5536 3.57478C82.226 3.59461 82.8895 3.73309 83.5136 3.98382L84.7919 1.56365C83.7805 1.11118 82.6872 0.870479 81.5792 0.856343C80.3694 0.825878 79.166 1.04185 78.0423 1.49113C76.9186 1.9404 75.898 2.61358 75.0427 3.46972C74.1873 4.32586 73.5151 5.34706 73.0669 6.4712C72.6186 7.59533 72.4038 8.7989 72.4354 10.0087C72.4003 11.2206 72.6125 12.4269 73.0591 13.5541C73.5058 14.6812 74.1775 15.7055 75.0332 16.5644C75.8889 17.4233 76.9107 18.0988 78.0362 18.5497C79.1616 19.0005 80.3672 19.2172 81.5792 19.1866C82.6916 19.1563 83.7867 18.9043 84.8004 18.4452L83.5136 16.0506C82.8802 16.2988 82.2082 16.4343 81.5281 16.4511" fill="#1E2D3C"/>
</g>
<path d="M120.863 1.14648V18.8802H117.472L109.223 5.60335V18.8802H106.359V1.14648H109.734L118 14.4319V8.56892V1.14648H120.863Z" fill="#F05323"/>
<path d="M134.234 16.1447V18.8802H123.633V1.14648H126.496V16.1447H134.234Z" fill="#F05323"/>
<path d="M138.828 1.14648H135.965V18.8887H138.828V1.14648Z" fill="#F05323"/>
<path d="M158.854 1.14648V18.8802H170.435V16.1447H161.717V10.8613H168.867V8.12579H161.717V3.88196H170.187V1.14648H158.854Z" fill="#F05323"/>
<mask id="mask1_1_241" style="mask-type:luminance" maskUnits="userSpaceOnUse" x="0" y="0" width="171" height="20">
<path d="M170.435 0.00390625H0V19.9959H170.435V0.00390625Z" fill="white"/>
</mask>
<g mask="url(#mask1_1_241)">
<path d="M101.648 9.99991C101.65 11.4295 101.228 12.8275 100.434 14.017C99.6415 15.2065 98.5134 16.1341 97.1931 16.6823C95.8728 17.2306 94.4196 17.3749 93.0172 17.097C91.6149 16.8192 90.3264 16.1316 89.3149 15.1213C88.3035 14.111 87.6144 12.8234 87.3348 11.4214C87.0553 10.0194 87.1979 8.56592 87.7446 7.24496C88.2913 5.92401 89.2175 4.79489 90.4061 4.00046C91.5947 3.20603 92.9922 2.78199 94.4218 2.78199C96.3369 2.78199 98.1737 3.54218 99.5286 4.89555C100.884 6.24893 101.646 8.08481 101.648 9.99991ZM94.4218 0.00390625C92.4448 0.00390625 90.5121 0.590161 88.8683 1.68854C87.2245 2.78691 85.9433 4.34807 85.1867 6.1746C84.4301 8.00113 84.2322 10.011 84.6179 11.95C85.0036 13.8891 85.9556 15.6702 87.3535 17.0681C88.7515 18.4661 90.5326 19.4181 92.4717 19.8038C94.4107 20.1895 96.4206 19.9916 98.2471 19.235C100.074 18.4784 101.635 17.1972 102.733 15.5534C103.832 13.9096 104.418 11.9769 104.418 9.99991C104.416 7.34949 103.362 4.80828 101.488 2.93416C99.6134 1.06003 97.0722 0.00616288 94.4218 0.00390625Z" fill="#F05323"/>
</g>
<path d="M95.6564 11.2176H88.873V10.9279L93.4663 9.02751L95.3922 4.33203H95.6564V11.2176Z" fill="#1E2D3C"/>
<mask id="mask2_1_241" style="mask-type:luminance" maskUnits="userSpaceOnUse" x="0" y="0" width="171" height="20">
<path d="M170.435 0.00390625H0V19.9959H170.435V0.00390625Z" fill="white"/>
</mask>
<g mask="url(#mask2_1_241)">
<path d="M9.59548 13.4093C9.59548 11.7049 8.7433 10.6994 6.50209 10.6994H2.8633V16.1447H6.3487C8.55583 16.1447 9.59548 15.0795 9.59548 13.4093ZM12.5099 13.4093C12.5099 16.818 10.3283 18.8547 6.45096 18.8547H0V1.14648H11.2146V3.88196H2.8633V8.05761H6.62991C10.5329 8.05761 12.5099 10.0347 12.5099 13.4348" fill="#1E2D3C"/>
<path d="M38.1082 9.55672C38.8271 9.25988 39.4395 8.75284 39.8652 8.10202C40.291 7.45121 40.5103 6.68697 40.4943 5.90942C40.4943 2.94385 37.8781 0.856025 34.1286 0.856025C33.2645 0.846425 32.4035 0.961224 31.572 1.19689V4.1795C32.331 3.7319 33.2064 3.52122 34.086 3.57446C36.3954 3.57446 37.614 4.66524 37.614 6.25881C37.614 7.85237 36.4124 8.52559 34.1541 8.52559H32.4924V11.0821H34.691C37.2987 11.0821 38.1594 12.1218 38.1594 13.6386C38.1594 15.343 36.9152 16.5019 34.3587 16.5019C33.2789 16.5441 32.2045 16.331 31.2227 15.8799V18.8454C32.2634 19.1145 33.3349 19.2463 34.4098 19.2374C38.4406 19.2374 41.0738 17.1837 41.0738 13.8858C41.1079 12.9501 40.8371 12.0287 40.3023 11.2603C39.7674 10.4918 38.9975 9.91789 38.1082 9.62489" fill="#1E2D3C"/>
</g>
<path d="M62.7461 3.88196V8.12579H69.8959V10.8613H62.7461V16.1447H71.4639V18.8802H59.8828V1.14648H71.2167V3.88196H62.7461Z" fill="#1E2D3C"/>
<path d="M156.092 1.14648V18.8802H152.692L144.451 5.60335V18.8802H141.588V1.14648H144.954L153.229 14.4319V8.56892V1.14648H156.092Z" fill="#F05323"/>
<path d="M14.5391 1.14648V18.8802H17.9307L26.1798 5.60335V18.8802H29.0431V1.14648H25.677L17.4024 14.4319V8.56892V1.14648H14.5391Z" fill="#1E2D3C"/>
</g>
<defs>
<clipPath id="clip0_1_241">
<rect width="170.435" height="20" fill="white"/>
</clipPath>
</defs>
</svg>
