<svg width="25" height="24" viewBox="0 0 25 24" fill="none" xmlns="http://www.w3.org/2000/svg">
<path d="M17.7574 10.7288L23.8303 0.226011C23.8394 0.199391 23.8394 0.170479 23.8303 0.14386C23.8395 0.119423 23.8395 0.0924643 23.8303 0.0680273C23.8184 0.0415407 23.7985 0.0194426 23.7734 0.00483375C23.7464 -0.00161125 23.7183 -0.00161125 23.6913 0.00483375H19.8112C19.3898 0.00676006 18.9762 0.117795 18.6105 0.327121C18.2465 0.5304 17.9433 0.827069 17.7321 1.18655L11.2105 12.4856C11.207 12.5065 11.207 12.5278 11.2105 12.5488C11.2076 12.5718 11.2076 12.5952 11.2105 12.6183C11.2187 12.6399 11.2316 12.6593 11.2485 12.6751C11.2659 12.6899 11.285 12.7026 11.3053 12.7131C12.7935 13.2522 14.1603 14.0803 15.3273 15.1496C16.4942 16.2189 17.4382 17.5084 18.105 18.9439C18.1142 18.9684 18.1142 18.9953 18.105 19.0198C18.1148 19.0441 18.1148 19.0713 18.105 19.0956C18.0927 19.1203 18.0727 19.1402 18.0481 19.1525C18.0231 19.1582 17.9972 19.1582 17.9722 19.1525H4.96069C4.92069 19.1513 4.88249 19.1356 4.85326 19.1082C4.83757 19.0937 4.825 19.0761 4.81631 19.0566C4.80762 19.037 4.80299 19.0159 4.80271 18.9945V4.94657C4.80182 4.92558 4.80529 4.90464 4.81291 4.88507C4.82054 4.8655 4.83214 4.84772 4.84699 4.83287C4.86185 4.81802 4.87962 4.80641 4.89919 4.79879C4.91877 4.79117 4.93971 4.78769 4.96069 4.78859H11.4886C11.9107 4.78768 12.3253 4.6764 12.6911 4.46578C13.0569 4.25515 13.3613 3.95252 13.574 3.58791L15.514 0.226011C15.5205 0.199007 15.5205 0.170864 15.514 0.14386C15.5204 0.11899 15.5204 0.0928969 15.514 0.0680273L15.4508 0.00483375C15.426 -0.00158755 15.3999 -0.00158755 15.375 0.00483375H0.164303C0.122629 0.00062101 0.0806742 0.00945352 0.0442355 0.0301112C0.0168828 0.0642906 0.00136024 0.106423 0 0.150179L0 23.8414C0.000284457 23.8628 0.00491217 23.8839 0.0136024 23.9035C0.0222927 23.9231 0.0348643 23.9406 0.0505548 23.9552C0.0817201 23.9835 0.12223 23.9992 0.164303 23.9994H23.8492C23.8713 24.0014 23.8935 23.9984 23.9143 23.9909C23.9351 23.9833 23.954 23.9712 23.9697 23.9556C23.9854 23.9399 23.9974 23.921 24.005 23.9002C24.0126 23.8794 24.0155 23.8572 24.0135 23.8351C23.9944 21.3605 23.4245 18.9212 22.3452 16.6943C21.2704 14.4676 19.7167 12.5061 17.7953 10.95C17.7651 10.9266 17.7448 10.8928 17.7384 10.8552C17.7326 10.8339 17.7313 10.8117 17.7346 10.79C17.7378 10.7682 17.7456 10.7474 17.7574 10.7288Z" fill="#96D700"/>
</svg>
